<svg xmlns="http://www.w3.org/2000/svg" viewBox="0 0 24 24" height="48" width="48"><g><path d="M16,5.75A.76.76,0,0,0,16.75,5V3.5a.75.75,0,0,0-1.5,0V5A.76.76,0,0,0,16,5.75Z" fill="#5a0090"></path><path d="M21,3a3,3,0,0,0-3-3H6A3,3,0,0,0,3,3V21a3,3,0,0,0,3,3H18a3,3,0,0,0,3-3ZM12,14a1,1,0,1,1-1,1A1,1,0,0,1,12,14Zm-1-3.5a1,1,0,1,1,1,1A1,1,0,0,1,11,10.5Zm5.5,8.25a.75.75,0,0,1,0,1.5H11a.75.75,0,0,1,0-1.5Zm0-2.75a1,1,0,1,1,1-1A1,1,0,0,1,16.5,16Zm0-4.5a1,1,0,1,1,1-1A1,1,0,0,1,16.5,11.5ZM7.5,16a1,1,0,1,1,1-1A1,1,0,0,1,7.5,16Zm1,3.5a1,1,0,1,1-1-1A1,1,0,0,1,8.5,19.5Zm-1-8a1,1,0,1,1,1-1A1,1,0,0,1,7.5,11.5ZM6,2H18a1,1,0,0,1,1,1V6.25a.25.25,0,0,1-.25.25H5.25A.25.25,0,0,1,5,6.25V3A1,1,0,0,1,6,2Z" fill="#5a0090"></path></g></svg>